<svg xmlns="http://www.w3.org/2000/svg" width="284.68" height="438.72" viewBox="0 0 284.68 438.72">
  <defs>
    <style>
      .cls-1 {
        fill: #00ad88;
        fill-rule: evenodd;
        opacity: 0.05;
      }
    </style>
  </defs>
  <path id="_" data-name="?" class="cls-1" d="M1355.72,9669.56q1.485-25.185,17.19-40.14,15.69-14.955,41.17-14.96,25.17,0,40.73,13.63t15.55,34.95q0,21.03-10.51,34.66t-39.25,30.81q-31.11,18.36-43.7,40.58t-9.62,56.58l0.59,17.18h78.5v-15.7q0-21.915,10.37-35.55t39.99-30.8q31.995-18.675,47.69-43.11t15.7-57.32q0-50.94-38.8-82.79-38.82-31.845-101.91-31.85-66.945,0-104.86,33.92t-39.1,89.91h80.27Zm101.02,268.38a43.763,43.763,0,0,0-14.22-33.03q-14.22-13.47-34.36-13.48-20.16,0-34.22,13.48a45.8,45.8,0,0,0,0,66.06q14.07,13.47,34.22,13.48,20.13,0,34.36-13.48A43.748,43.748,0,0,0,1456.74,9937.94Z" transform="translate(-1275.44 -9545.72)"/>
</svg>
